<svg xmlns="http://www.w3.org/2000/svg" viewBox="0 0 64 64">
  <defs>
    <linearGradient id="g" x1="0%" y1="0%" x2="100%" y2="100%">
      <stop offset="0%" stop-color="#4ade80"/>
      <stop offset="100%" stop-color="#3b82f6"/>
    </linearGradient>
  </defs>
  <!-- Background -->
  <rect width="64" height="64" rx="12" fill="url(#g)"/>
  <!-- Calculator body -->
  <rect x="11" y="7" width="42" height="50" rx="5" fill="white" opacity="0.95"/>
  <!-- Display -->
  <rect x="15" y="11" width="34" height="13" rx="2" fill="#1e293b"/>
  <!-- Button grid: 3 columns x 4 rows -->
  <!-- Row 1 -->
  <rect x="15" y="28" width="9" height="7" rx="2" fill="#94a3b8"/>
  <rect x="27" y="28" width="9" height="7" rx="2" fill="#94a3b8"/>
  <rect x="39" y="28" width="9" height="7" rx="2" fill="#4ade80"/>
  <!-- Row 2 -->
  <rect x="15" y="38" width="9" height="7" rx="2" fill="#94a3b8"/>
  <rect x="27" y="38" width="9" height="7" rx="2" fill="#94a3b8"/>
  <rect x="39" y="38" width="9" height="7" rx="2" fill="#94a3b8"/>
  <!-- Row 3 -->
  <rect x="15" y="48" width="9" height="5" rx="2" fill="#94a3b8"/>
  <rect x="27" y="48" width="9" height="5" rx="2" fill="#94a3b8"/>
  <rect x="39" y="48" width="9" height="5" rx="2" fill="#3b82f6"/>
</svg>
